<?xml version="1.0" encoding="utf-8"?>
<!-- Generator: Adobe Illustrator 25.3.0, SVG Export Plug-In . SVG Version: 6.00 Build 0)  -->
<svg version="1.1" id="Layer_1" xmlns="http://www.w3.org/2000/svg" xmlns:xlink="http://www.w3.org/1999/xlink" x="0px" y="0px"
	 viewBox="0 0 283.46 198.43" style="enable-background:new 0 0 283.46 198.43;" xml:space="preserve">
<style type="text/css">
	.st0{fill:url(#SVGID_1_);}
	.st1{fill:url(#SVGID_2_);}
	.st2{fill:url(#SVGID_3_);}
	.st3{fill:url(#SVGID_4_);}
	.st4{fill:url(#SVGID_5_);}
	.st5{fill:url(#SVGID_6_);}
	.st6{fill:url(#SVGID_7_);}
	.st7{fill:url(#SVGID_8_);}
	.st8{fill:url(#SVGID_9_);}
	.st9{fill:#1F1F21;}
	.st10{fill:url(#SVGID_10_);}
	.st11{fill:url(#SVGID_11_);}
	.st12{fill:url(#SVGID_12_);}
	.st13{fill:url(#SVGID_13_);}
	.st14{fill:url(#SVGID_14_);}
	.st15{fill:url(#SVGID_15_);}
	.st16{fill:url(#SVGID_16_);}
	.st17{fill:url(#SVGID_17_);}
	.st18{fill:url(#SVGID_18_);}
	.st19{fill:url(#SVGID_19_);}
	.st20{fill:url(#SVGID_20_);}
	.st21{fill:url(#SVGID_21_);}
	.st22{fill:url(#SVGID_22_);}
	.st23{fill:url(#SVGID_23_);}
	.st24{fill:url(#SVGID_24_);}
	.st25{fill:url(#SVGID_25_);}
	.st26{fill:url(#SVGID_26_);}
	.st27{fill:url(#SVGID_27_);}
	.st28{fill:url(#SVGID_28_);}
	.st29{fill:url(#SVGID_29_);}
	.st30{fill:url(#SVGID_30_);}
	.st31{fill:url(#SVGID_31_);}
	.st32{fill:url(#SVGID_32_);}
	.st33{fill:#575756;}
	.st34{fill:url(#SVGID_33_);}
	.st35{fill:url(#SVGID_34_);}
	.st36{fill:url(#SVGID_35_);}
	.st37{fill:url(#SVGID_36_);}
	.st38{fill:url(#SVGID_37_);}
	.st39{fill:url(#SVGID_38_);}
	.st40{fill:url(#SVGID_39_);}
	.st41{fill:url(#SVGID_40_);}
	.st42{fill:url(#SVGID_41_);}
	.st43{fill:url(#SVGID_42_);}
	.st44{fill:url(#SVGID_43_);}
	.st45{fill:url(#SVGID_44_);}
	.st46{fill:url(#SVGID_45_);}
	.st47{fill:url(#SVGID_46_);}
	.st48{fill:url(#SVGID_47_);}
	.st49{fill:url(#SVGID_48_);}
	.st50{fill:url(#SVGID_49_);}
	.st51{fill:url(#SVGID_50_);}
	.st52{fill:url(#SVGID_51_);}
	.st53{fill:url(#SVGID_52_);}
	.st54{fill:url(#SVGID_53_);}
	.st55{fill:url(#SVGID_54_);}
	.st56{fill:url(#SVGID_55_);}
	.st57{fill:url(#SVGID_56_);}
	.st58{fill:url(#SVGID_57_);}
	.st59{fill:url(#SVGID_58_);}
	.st60{fill:url(#SVGID_59_);}
	.st61{fill:url(#SVGID_60_);}
	.st62{fill:url(#SVGID_61_);}
	.st63{fill:url(#SVGID_62_);}
	.st64{fill:url(#SVGID_63_);}
	.st65{fill:url(#SVGID_64_);}
	.st66{fill:url(#SVGID_65_);}
	.st67{fill:url(#SVGID_66_);}
	.st68{fill:url(#SVGID_67_);}
	.st69{fill:#FFFFFF;}
	.st70{fill:url(#SVGID_68_);}
	.st71{fill:url(#SVGID_69_);}
	.st72{fill:url(#SVGID_70_);}
	.st73{fill:url(#SVGID_71_);}
	.st74{fill:url(#SVGID_72_);}
	.st75{fill:url(#SVGID_73_);}
	.st76{fill:url(#SVGID_74_);}
	.st77{fill:url(#SVGID_75_);}
	.st78{fill:url(#SVGID_76_);}
	.st79{fill:url(#SVGID_77_);}
	.st80{fill:url(#SVGID_78_);}
	.st81{fill:url(#SVGID_79_);}
</style>
<g>
	<g>
		<linearGradient id="SVGID_1_" gradientUnits="userSpaceOnUse" x1="37.7817" y1="127.6965" x2="38.1684" y2="187.2521">
			<stop  offset="0" style="stop-color:#E0B84F"/>
			<stop  offset="0.24" style="stop-color:#D8B25A"/>
			<stop  offset="0.56" style="stop-color:#C9AA59"/>
			<stop  offset="0.83" style="stop-color:#BC954A"/>
			<stop  offset="1" style="stop-color:#BB954A"/>
		</linearGradient>
		<polygon class="st0" points="40.34,171.99 37.26,167.24 34.4,167.24 34.4,176.52 35.78,176.52 35.78,169.74 40.22,176.52 
			41.73,176.52 41.73,167.24 40.34,167.24 		"/>
		<linearGradient id="SVGID_2_" gradientUnits="userSpaceOnUse" x1="47.0583" y1="127.6363" x2="47.4451" y2="187.1918">
			<stop  offset="0" style="stop-color:#E0B84F"/>
			<stop  offset="0.24" style="stop-color:#D8B25A"/>
			<stop  offset="0.56" style="stop-color:#C9AA59"/>
			<stop  offset="0.83" style="stop-color:#BC954A"/>
			<stop  offset="1" style="stop-color:#BB954A"/>
		</linearGradient>
		<path class="st1" d="M46.01,167.24l-3.19,9.29h1.32l0.92-2.74h3.12l0.98,2.74h2.76l-3.4-9.29H46.01z M45.47,172.6l1.09-3.33
			l1.2,3.33H45.47z"/>
		<linearGradient id="SVGID_3_" gradientUnits="userSpaceOnUse" x1="57.2907" y1="127.5699" x2="57.6774" y2="187.1254">
			<stop  offset="0" style="stop-color:#E0B84F"/>
			<stop  offset="0.24" style="stop-color:#D8B25A"/>
			<stop  offset="0.56" style="stop-color:#C9AA59"/>
			<stop  offset="0.83" style="stop-color:#BC954A"/>
			<stop  offset="1" style="stop-color:#BB954A"/>
		</linearGradient>
		<polygon class="st2" points="57.53,172.24 55.44,167.24 53,167.24 53,176.52 54.35,176.52 54.35,170.69 56.8,176.52 57.05,176.52 
			59.56,170.42 59.56,176.52 62.15,176.52 62.15,167.24 59.6,167.24 		"/>
		<linearGradient id="SVGID_4_" gradientUnits="userSpaceOnUse" x1="67.4632" y1="127.5038" x2="67.8499" y2="187.0593">
			<stop  offset="0" style="stop-color:#E0B84F"/>
			<stop  offset="0.24" style="stop-color:#D8B25A"/>
			<stop  offset="0.56" style="stop-color:#C9AA59"/>
			<stop  offset="0.83" style="stop-color:#BC954A"/>
			<stop  offset="1" style="stop-color:#BB954A"/>
		</linearGradient>
		<path class="st3" d="M66.42,167.24l-3.19,9.29h1.32l0.92-2.74h3.12l0.98,2.74h2.76l-3.4-9.29H66.42z M65.87,172.6l1.09-3.33
			l1.2,3.33H65.87z"/>
		<linearGradient id="SVGID_5_" gradientUnits="userSpaceOnUse" x1="80.8741" y1="127.4167" x2="81.2608" y2="186.9722">
			<stop  offset="0" style="stop-color:#E0B84F"/>
			<stop  offset="0.24" style="stop-color:#D8B25A"/>
			<stop  offset="0.56" style="stop-color:#C9AA59"/>
			<stop  offset="0.83" style="stop-color:#BC954A"/>
			<stop  offset="1" style="stop-color:#BB954A"/>
		</linearGradient>
		<path class="st4" d="M79.83,167.24l-3.19,9.29h1.32l0.92-2.74H82l0.98,2.74h2.76l-3.4-9.29H79.83z M79.29,172.6l1.09-3.33
			l1.2,3.33H79.29z"/>
		<linearGradient id="SVGID_6_" gradientUnits="userSpaceOnUse" x1="89.4935" y1="127.3608" x2="89.8802" y2="186.9163">
			<stop  offset="0" style="stop-color:#E0B84F"/>
			<stop  offset="0.24" style="stop-color:#D8B25A"/>
			<stop  offset="0.56" style="stop-color:#C9AA59"/>
			<stop  offset="0.83" style="stop-color:#BC954A"/>
			<stop  offset="1" style="stop-color:#BB954A"/>
		</linearGradient>
		<polygon class="st5" points="89.43,167.24 86.82,167.24 86.82,176.52 92.8,176.52 92.8,175.27 89.43,175.27 		"/>
		<linearGradient id="SVGID_7_" gradientUnits="userSpaceOnUse" x1="102.533" y1="127.2761" x2="102.9197" y2="186.8316">
			<stop  offset="0" style="stop-color:#E0B84F"/>
			<stop  offset="0.24" style="stop-color:#D8B25A"/>
			<stop  offset="0.56" style="stop-color:#C9AA59"/>
			<stop  offset="0.83" style="stop-color:#BC954A"/>
			<stop  offset="1" style="stop-color:#BB954A"/>
		</linearGradient>
		<path class="st6" d="M105.08,174.97c-0.25,0.18-0.5,0.32-0.76,0.41c-0.26,0.09-0.54,0.14-0.83,0.14c-0.79,0-1.44-0.33-1.93-1
			c-0.5-0.67-0.74-1.54-0.74-2.61c0-1.18,0.22-2.09,0.66-2.74c0.44-0.65,1.06-0.97,1.86-0.97c0.52,0,0.99,0.15,1.4,0.45
			c0.41,0.3,0.75,0.75,1.04,1.35l1.18-0.87c-0.46-0.71-1.01-1.24-1.64-1.58c-0.63-0.34-1.37-0.51-2.23-0.51
			c-0.67,0-1.29,0.1-1.86,0.3c-0.57,0.2-1.09,0.49-1.54,0.88c-0.52,0.45-0.92,0.99-1.21,1.64c-0.29,0.64-0.43,1.31-0.43,2
			c0,0.81,0.14,1.52,0.43,2.15c0.29,0.63,0.72,1.18,1.31,1.66c0.43,0.36,0.93,0.63,1.48,0.81c0.55,0.18,1.15,0.27,1.81,0.27
			c0.85,0,1.67-0.14,2.44-0.43c0.78-0.29,1.48-0.71,2.12-1.26v-2.67h-2.54V174.97z"/>
		<linearGradient id="SVGID_8_" gradientUnits="userSpaceOnUse" x1="112.8167" y1="127.2093" x2="113.2034" y2="186.7648">
			<stop  offset="0" style="stop-color:#E0B84F"/>
			<stop  offset="0.24" style="stop-color:#D8B25A"/>
			<stop  offset="0.56" style="stop-color:#C9AA59"/>
			<stop  offset="0.83" style="stop-color:#BC954A"/>
			<stop  offset="1" style="stop-color:#BB954A"/>
		</linearGradient>
		<polygon class="st7" points="114.5,171.2 111.71,171.2 111.71,167.24 109.11,167.24 109.11,176.52 111.71,176.52 111.71,172.45 
			114.5,172.45 114.5,176.52 117.1,176.52 117.1,167.24 114.5,167.24 		"/>
		<linearGradient id="SVGID_9_" gradientUnits="userSpaceOnUse" x1="122.4195" y1="127.147" x2="122.8062" y2="186.7025">
			<stop  offset="0" style="stop-color:#E0B84F"/>
			<stop  offset="0.24" style="stop-color:#D8B25A"/>
			<stop  offset="0.56" style="stop-color:#C9AA59"/>
			<stop  offset="0.83" style="stop-color:#BC954A"/>
			<stop  offset="1" style="stop-color:#BB954A"/>
		</linearGradient>
		<path class="st8" d="M121.38,167.24l-3.19,9.29h1.32l0.92-2.74h3.12l0.98,2.74h2.76l-3.4-9.29H121.38z M120.83,172.6l1.09-3.33
			l1.2,3.33H120.83z"/>
		<linearGradient id="SVGID_10_" gradientUnits="userSpaceOnUse" x1="131.9866" y1="127.0848" x2="132.3733" y2="186.6404">
			<stop  offset="0" style="stop-color:#E0B84F"/>
			<stop  offset="0.24" style="stop-color:#D8B25A"/>
			<stop  offset="0.56" style="stop-color:#C9AA59"/>
			<stop  offset="0.83" style="stop-color:#BC954A"/>
			<stop  offset="1" style="stop-color:#BB954A"/>
		</linearGradient>
		<path class="st10" d="M135.62,171.66c0.36-0.41,0.54-0.94,0.54-1.58c0-0.88-0.33-1.57-1-2.08c-0.66-0.51-1.58-0.76-2.75-0.76
			h-4.05v9.29h2.53v-8.13h0.66c0.69,0,1.19,0.14,1.51,0.43c0.32,0.29,0.49,0.72,0.49,1.32c0,0.56-0.16,0.98-0.47,1.25
			c-0.31,0.28-0.79,0.41-1.43,0.41h-0.58l2.26,4.72h2.91l-2.24-3.99C134.72,172.36,135.26,172.07,135.62,171.66z"/>
		<linearGradient id="SVGID_11_" gradientUnits="userSpaceOnUse" x1="141.4534" y1="127.0234" x2="141.8401" y2="186.5789">
			<stop  offset="0" style="stop-color:#E0B84F"/>
			<stop  offset="0.24" style="stop-color:#D8B25A"/>
			<stop  offset="0.56" style="stop-color:#C9AA59"/>
			<stop  offset="0.83" style="stop-color:#BC954A"/>
			<stop  offset="1" style="stop-color:#BB954A"/>
		</linearGradient>
		<path class="st11" d="M143.4,171.83c0.64-0.11,1.12-0.34,1.45-0.69c0.33-0.35,0.49-0.81,0.49-1.37c0-0.78-0.29-1.4-0.87-1.85
			c-0.58-0.45-1.37-0.68-2.38-0.68h-4.21v9.29h4.55c1.05,0,1.84-0.2,2.39-0.61c0.55-0.41,0.82-1,0.82-1.78
			c0-0.56-0.19-1.04-0.58-1.43C144.68,172.3,144.13,172.01,143.4,171.83z M140.41,168.39h0.73c0.53,0,0.93,0.11,1.18,0.34
			c0.25,0.22,0.38,0.58,0.38,1.05c0,0.51-0.13,0.88-0.39,1.09c-0.26,0.21-0.7,0.32-1.33,0.32h-0.57V168.39z M142.48,175.02
			c-0.28,0.23-0.77,0.35-1.45,0.35h-0.61v-3.04h0.78c0.58,0,1.01,0.12,1.29,0.37c0.28,0.25,0.42,0.63,0.42,1.14
			C142.91,174.39,142.76,174.78,142.48,175.02z"/>
		<linearGradient id="SVGID_12_" gradientUnits="userSpaceOnUse" x1="148.2369" y1="126.9793" x2="148.6236" y2="186.5348">
			<stop  offset="0" style="stop-color:#E0B84F"/>
			<stop  offset="0.24" style="stop-color:#D8B25A"/>
			<stop  offset="0.56" style="stop-color:#C9AA59"/>
			<stop  offset="0.83" style="stop-color:#BC954A"/>
			<stop  offset="1" style="stop-color:#BB954A"/>
		</linearGradient>
		<rect x="147.23" y="167.24" class="st12" width="2.6" height="9.29"/>
		<linearGradient id="SVGID_13_" gradientUnits="userSpaceOnUse" x1="155.1729" y1="126.9343" x2="155.5597" y2="186.4898">
			<stop  offset="0" style="stop-color:#E0B84F"/>
			<stop  offset="0.24" style="stop-color:#D8B25A"/>
			<stop  offset="0.56" style="stop-color:#C9AA59"/>
			<stop  offset="0.83" style="stop-color:#BC954A"/>
			<stop  offset="1" style="stop-color:#BB954A"/>
		</linearGradient>
		<path class="st13" d="M154.13,167.24l-3.19,9.29h1.32l0.92-2.74h3.12l0.98,2.74h2.76l-3.4-9.29H154.13z M153.59,172.6l1.09-3.33
			l1.2,3.33H153.59z"/>
		<linearGradient id="SVGID_14_" gradientUnits="userSpaceOnUse" x1="169.136" y1="126.8436" x2="169.5227" y2="186.3991">
			<stop  offset="0" style="stop-color:#E0B84F"/>
			<stop  offset="0.24" style="stop-color:#D8B25A"/>
			<stop  offset="0.56" style="stop-color:#C9AA59"/>
			<stop  offset="0.83" style="stop-color:#BC954A"/>
			<stop  offset="1" style="stop-color:#BB954A"/>
		</linearGradient>
		<path class="st14" d="M172.77,171.66c0.36-0.41,0.54-0.94,0.54-1.58c0-0.88-0.33-1.57-1-2.08c-0.66-0.51-1.58-0.76-2.75-0.76
			h-4.05v9.29h2.53v-8.13h0.66c0.68,0,1.19,0.14,1.51,0.43c0.32,0.29,0.49,0.72,0.49,1.32c0,0.56-0.16,0.98-0.47,1.25
			c-0.31,0.28-0.79,0.41-1.43,0.41h-0.58l2.26,4.72h2.91l-2.24-3.99C171.87,172.36,172.41,172.07,172.77,171.66z"/>
		<linearGradient id="SVGID_15_" gradientUnits="userSpaceOnUse" x1="177.7098" y1="126.7879" x2="178.0965" y2="186.3434">
			<stop  offset="0" style="stop-color:#E0B84F"/>
			<stop  offset="0.24" style="stop-color:#D8B25A"/>
			<stop  offset="0.56" style="stop-color:#C9AA59"/>
			<stop  offset="0.83" style="stop-color:#BC954A"/>
			<stop  offset="1" style="stop-color:#BB954A"/>
		</linearGradient>
		<polygon class="st15" points="177.64,172.44 180.68,172.44 180.68,171.19 177.64,171.19 177.64,168.49 180.85,168.49 
			180.85,167.24 175.04,167.24 175.04,176.52 181.02,176.52 181.02,175.27 177.64,175.27 		"/>
		<linearGradient id="SVGID_16_" gradientUnits="userSpaceOnUse" x1="186.0227" y1="126.7339" x2="186.4094" y2="186.2895">
			<stop  offset="0" style="stop-color:#E0B84F"/>
			<stop  offset="0.24" style="stop-color:#D8B25A"/>
			<stop  offset="0.56" style="stop-color:#C9AA59"/>
			<stop  offset="0.83" style="stop-color:#BC954A"/>
			<stop  offset="1" style="stop-color:#BB954A"/>
		</linearGradient>
		<path class="st16" d="M184.98,167.24l-3.19,9.29h1.32l0.92-2.74h3.12l0.98,2.74h2.76l-3.4-9.29H184.98z M184.44,172.6l1.09-3.33
			l1.2,3.33H184.44z"/>
		<linearGradient id="SVGID_17_" gradientUnits="userSpaceOnUse" x1="194.6427" y1="126.678" x2="195.0294" y2="186.2335">
			<stop  offset="0" style="stop-color:#E0B84F"/>
			<stop  offset="0.24" style="stop-color:#D8B25A"/>
			<stop  offset="0.56" style="stop-color:#C9AA59"/>
			<stop  offset="0.83" style="stop-color:#BC954A"/>
			<stop  offset="1" style="stop-color:#BB954A"/>
		</linearGradient>
		<polygon class="st17" points="194.58,167.24 191.98,167.24 191.98,176.52 197.95,176.52 197.95,175.27 194.58,175.27 		"/>
		<linearGradient id="SVGID_18_" gradientUnits="userSpaceOnUse" x1="206.4839" y1="126.6011" x2="206.8706" y2="186.1566">
			<stop  offset="0" style="stop-color:#E0B84F"/>
			<stop  offset="0.24" style="stop-color:#D8B25A"/>
			<stop  offset="0.56" style="stop-color:#C9AA59"/>
			<stop  offset="0.83" style="stop-color:#BC954A"/>
			<stop  offset="1" style="stop-color:#BB954A"/>
		</linearGradient>
		<polygon class="st18" points="206.42,172.44 209.46,172.44 209.46,171.19 206.42,171.19 206.42,168.49 209.62,168.49 
			209.62,167.24 203.81,167.24 203.81,176.52 209.8,176.52 209.8,175.27 206.42,175.27 		"/>
		<linearGradient id="SVGID_19_" gradientUnits="userSpaceOnUse" x1="214.2036" y1="126.551" x2="214.5903" y2="186.1065">
			<stop  offset="0" style="stop-color:#E0B84F"/>
			<stop  offset="0.24" style="stop-color:#D8B25A"/>
			<stop  offset="0.56" style="stop-color:#C9AA59"/>
			<stop  offset="0.83" style="stop-color:#BC954A"/>
			<stop  offset="1" style="stop-color:#BB954A"/>
		</linearGradient>
		<path class="st19" d="M216.87,171.69c-0.19-0.16-0.77-0.48-1.72-0.95l-0.17-0.09c-0.51-0.26-0.85-0.49-1.03-0.68
			c-0.18-0.19-0.27-0.42-0.27-0.68c0-0.31,0.11-0.56,0.32-0.76c0.21-0.2,0.49-0.31,0.82-0.31c0.39,0,0.73,0.11,1.02,0.33
			c0.29,0.22,0.52,0.56,0.7,1l1.06-0.74c-0.29-0.58-0.69-1.02-1.2-1.33c-0.51-0.31-1.1-0.46-1.78-0.46c-0.96,0-1.74,0.28-2.34,0.85
			c-0.6,0.57-0.9,1.3-0.9,2.19c0,0.41,0.07,0.76,0.22,1.07c0.15,0.3,0.4,0.61,0.75,0.91c0.17,0.15,0.68,0.45,1.52,0.9l0.37,0.2
			c0.39,0.21,0.67,0.42,0.84,0.63c0.17,0.21,0.26,0.44,0.26,0.69c0,0.31-0.11,0.58-0.34,0.78c-0.23,0.21-0.52,0.31-0.87,0.31
			c-0.34,0-0.66-0.12-0.94-0.36c-0.28-0.24-0.52-0.59-0.71-1.03l-1.28,0.77c0.29,0.58,0.72,1.03,1.27,1.35
			c0.56,0.32,1.2,0.48,1.93,0.48c1.02,0,1.85-0.29,2.48-0.86c0.64-0.57,0.95-1.32,0.95-2.23c0-0.42-0.07-0.78-0.23-1.09
			S217.21,171.97,216.87,171.69z"/>
		<linearGradient id="SVGID_20_" gradientUnits="userSpaceOnUse" x1="221.9678" y1="126.5005" x2="222.3545" y2="186.056">
			<stop  offset="0" style="stop-color:#E0B84F"/>
			<stop  offset="0.24" style="stop-color:#D8B25A"/>
			<stop  offset="0.56" style="stop-color:#C9AA59"/>
			<stop  offset="0.83" style="stop-color:#BC954A"/>
			<stop  offset="1" style="stop-color:#BB954A"/>
		</linearGradient>
		<polygon class="st20" points="226.01,167.24 218.46,167.24 218.46,168.49 220.94,168.49 220.94,176.52 223.54,176.52 
			223.54,168.49 226.01,168.49 		"/>
		<linearGradient id="SVGID_21_" gradientUnits="userSpaceOnUse" x1="229.8185" y1="126.4496" x2="230.2052" y2="186.0051">
			<stop  offset="0" style="stop-color:#E0B84F"/>
			<stop  offset="0.24" style="stop-color:#D8B25A"/>
			<stop  offset="0.56" style="stop-color:#C9AA59"/>
			<stop  offset="0.83" style="stop-color:#BC954A"/>
			<stop  offset="1" style="stop-color:#BB954A"/>
		</linearGradient>
		<path class="st21" d="M228.78,167.24l-3.19,9.29h1.32l0.92-2.74h3.12l0.98,2.74h2.76l-3.4-9.29H228.78z M228.24,172.6l1.09-3.33
			l1.2,3.33H228.24z"/>
		<linearGradient id="SVGID_22_" gradientUnits="userSpaceOnUse" x1="237.7753" y1="126.3979" x2="238.162" y2="185.9534">
			<stop  offset="0" style="stop-color:#E0B84F"/>
			<stop  offset="0.24" style="stop-color:#D8B25A"/>
			<stop  offset="0.56" style="stop-color:#C9AA59"/>
			<stop  offset="0.83" style="stop-color:#BC954A"/>
			<stop  offset="1" style="stop-color:#BB954A"/>
		</linearGradient>
		<polygon class="st22" points="234.27,168.49 236.75,168.49 236.75,176.52 239.35,176.52 239.35,168.49 241.82,168.49 
			241.82,167.24 234.27,167.24 		"/>
		<linearGradient id="SVGID_23_" gradientUnits="userSpaceOnUse" x1="245.7446" y1="126.3461" x2="246.1313" y2="185.9017">
			<stop  offset="0" style="stop-color:#E0B84F"/>
			<stop  offset="0.24" style="stop-color:#D8B25A"/>
			<stop  offset="0.56" style="stop-color:#C9AA59"/>
			<stop  offset="0.83" style="stop-color:#BC954A"/>
			<stop  offset="1" style="stop-color:#BB954A"/>
		</linearGradient>
		<polygon class="st23" points="245.68,175.27 245.68,172.44 248.72,172.44 248.72,171.19 245.68,171.19 245.68,168.49 
			248.89,168.49 248.89,167.24 243.07,167.24 243.07,176.52 249.06,176.52 249.06,175.27 		"/>
	</g>
	<g>
		<polygon class="st69" points="40.58,140.65 42.41,142.37 44.34,140.5 42.38,138.66 40.58,140.35 38.78,138.66 36.84,140.5 
			38.8,142.37 		"/>
		<polygon class="st69" points="50.76,157.54 48.96,155.85 47.02,157.69 48.98,159.56 50.76,157.84 52.59,159.56 54.52,157.69 
			52.57,155.85 		"/>
		<path class="st69" d="M47.49,154.47h1.74c1.6,0,2.8-0.36,3.62-1.08c0.81-0.72,1.22-1.76,1.22-3.12v-6.4l-2.38,0.32v5.36
			c0,1.65-0.81,2.48-2.44,2.48h-1.74c0,0-0.01,0-0.01,0c0,0-0.01,0-0.01,0c-0.65,0-1.11-0.16-1.41-0.47
			c-0.29-0.31-0.44-0.83-0.44-1.55l-0.02-6.97l-2.38,0.32v1.25c-0.95-0.34-1.85-0.51-2.71-0.51c-1.48,0-2.71,0.53-3.68,1.58
			c-0.98,1.05-1.46,2.32-1.46,3.81c0,1.47,0.48,2.7,1.45,3.69c0.97,0.99,2.2,1.48,3.7,1.48c1.17,0,2.47-0.35,3.89-1.06
			C45.09,154.18,46.11,154.47,47.49,154.47C47.49,154.47,47.49,154.47,47.49,154.47z M40.54,152.35c-0.85-0.01-1.55-0.3-2.09-0.85
			c-0.54-0.55-0.81-1.24-0.81-2.06c0-0.86,0.28-1.59,0.85-2.17c0.56-0.59,1.29-0.88,2.17-0.88c0.66,0,1.53,0.18,2.62,0.55v3.33
			c0,0.55,0.04,1.04,0.13,1.46C42.46,152.16,41.5,152.36,40.54,152.35z"/>
		<path class="st69" d="M58.51,153.83c0,2.18-1.22,3.27-3.67,3.27l0.2,1.93c1.96,0,3.43-0.41,4.39-1.22
			c0.96-0.81,1.44-2.11,1.44-3.89v-10.05l-2.38,0.32L58.51,153.83z"/>
		<polygon class="st69" points="83.47,140.71 85.29,142.43 87.23,140.56 85.27,138.72 83.47,140.41 81.67,138.72 79.73,140.56 
			81.69,142.43 		"/>
		<path class="st69" d="M105.42,149.47c0,1.71-0.81,2.56-2.44,2.56c-0.02,0-0.03,0.01-0.05,0.01c-0.02,0-0.02-0.01-0.04-0.01
			c-1.31,0-2.46-0.08-3.45-0.23c0.85-0.64,1.48-1.35,1.89-2.13c0.41-0.78,0.62-1.55,0.62-2.3c0-1.17-0.49-2.13-1.47-2.88
			c-0.98-0.75-2.22-1.12-3.72-1.12c-1.63,0-3.46,0.49-5.5,1.48l-0.9,2.06c0.98,1.81,2.09,3.43,3.32,4.85
			c-1.29,0.18-2.59,0.28-3.92,0.28c-1.1,0-2.03-0.05-2.79-0.15c1.07-0.96,1.61-2.09,1.61-3.39c0-1.26-0.47-2.32-1.4-3.2
			c-0.93-0.88-2.12-1.31-3.55-1.31c-1.42,0-2.61,0.43-3.55,1.3s-1.42,1.95-1.42,3.23c0,1.33,0.53,2.47,1.61,3.41
			c-0.73,0.07-1.69,0.11-2.88,0.11h-4.27h-4.27c0,0-0.01,0-0.01,0c0,0-0.01,0-0.01,0c-1.63,0-2.44-0.85-2.44-2.56v-10.47l-2.4,0.32
			L64,150.15c0,2.88,1.61,4.32,4.84,4.32h4.27h4.27h0c2.49,0,4.61-0.28,6.36-0.85c1.92,0.57,3.93,0.85,6.03,0.85
			c1.63,0,2.97-0.08,4.04-0.24c1.06-0.16,2.11-0.47,3.13-0.92c1.6,0.78,3.59,1.17,5.96,1.17c0.01,0,0.02-0.01,0.03-0.01
			c0.01,0,0.02,0.01,0.03,0.01c3.24,0,4.86-1.44,4.86-4.32v-11.15l-2.38,0.32L105.42,149.47z M85.53,150.48
			c-0.49,0.54-1.14,0.95-1.95,1.23c-0.79-0.24-1.43-0.63-1.9-1.17c-0.48-0.54-0.71-1.13-0.71-1.78c0-0.75,0.24-1.36,0.73-1.83
			c0.48-0.47,1.11-0.71,1.87-0.71c0.76,0,1.4,0.24,1.93,0.72c0.52,0.48,0.78,1.09,0.78,1.82C86.26,149.38,86.02,149.95,85.53,150.48
			z M96.36,151.42c-1.28-1.36-2.43-3-3.48-4.94c1.33-0.56,2.51-0.84,3.52-0.83c0.95,0,1.71,0.23,2.27,0.69
			c0.56,0.46,0.84,1.06,0.84,1.79c0,0.55-0.29,1.13-0.86,1.74C98.07,150.48,97.31,150.99,96.36,151.42z"/>
		<polygon class="st69" points="111.38,154.47 113.78,154.47 113.78,138.99 111.38,139.31 		"/>
		<polygon class="st69" points="126.45,140.65 128.27,142.37 130.21,140.5 128.25,138.66 126.45,140.35 124.64,138.66 122.71,140.5 
			124.66,142.37 		"/>
		<polygon class="st69" points="137.49,157.54 135.68,155.85 133.75,157.69 135.71,159.56 137.49,157.84 139.31,159.56 
			141.25,157.69 139.29,155.85 		"/>
		<path class="st69" d="M144.2,149.55c0,1.65-0.82,2.48-2.46,2.48c0,0-0.01,0-0.01,0c0,0-0.01,0-0.01,0c-1.04,0-2.01-0.3-2.9-0.91
			c0.04-0.28,0.07-0.57,0.07-0.85v-4.18l-2.38,0.32v3.14c0,0.88-0.25,1.51-0.76,1.9c-0.51,0.39-1.29,0.58-2.36,0.58
			c0,0-0.01,0-0.01,0c0,0-0.01,0-0.01,0c-0.65,0-1.12-0.16-1.41-0.47c-0.29-0.31-0.44-0.83-0.44-1.55l-0.02-6.97l-2.37,0.32v1.25
			c-0.95-0.34-1.86-0.51-2.71-0.51c-1.48,0-2.71,0.53-3.68,1.58c-0.97,1.05-1.46,2.32-1.46,3.81c0,1.47,0.48,2.7,1.45,3.69
			c0.97,0.99,2.2,1.48,3.7,1.48c1.17,0,2.47-0.35,3.89-1.06c0.66,0.58,1.68,0.87,3.06,0.87c2.26,0,3.82-0.52,4.69-1.57
			c1.13,1.05,2.35,1.57,3.67,1.57c1.61,0,2.83-0.36,3.64-1.08c0.81-0.72,1.22-1.76,1.22-3.12v-6.4l-2.4,0.32L144.2,149.55z
			 M126.4,152.35c-0.85-0.01-1.55-0.3-2.09-0.85c-0.54-0.55-0.81-1.24-0.81-2.06c0-0.86,0.28-1.59,0.85-2.17
			c0.56-0.59,1.29-0.88,2.17-0.88c0.66,0,1.53,0.18,2.62,0.55v3.33c0,0.55,0.04,1.04,0.13,1.46
			C128.32,152.16,127.37,152.36,126.4,152.35z"/>
		<polygon class="st69" points="142.22,157.71 144.2,159.56 146.13,157.71 144.15,155.85 		"/>
		<polygon class="st69" points="172.85,140.01 170.87,138.17 168.94,140.01 170.92,141.88 		"/>
		<path class="st69" d="M180,149.47c0,1.71-0.81,2.56-2.44,2.56c-0.02,0-0.03,0.01-0.05,0.01c-0.02,0-0.02-0.01-0.04-0.01
			c-1.31,0-2.46-0.08-3.45-0.23c0.85-0.64,1.48-1.35,1.89-2.13c0.41-0.78,0.62-1.55,0.62-2.3c0-1.17-0.49-2.13-1.47-2.88
			c-0.98-0.75-2.22-1.12-3.72-1.12c-1.63,0-3.46,0.49-5.5,1.48l-0.9,2.06c0.98,1.81,2.09,3.43,3.32,4.85
			c-1.29,0.18-2.6,0.28-3.92,0.28h-4.27h0h-4.27c-0.01,0-0.01,0-0.01,0c0,0-0.01,0-0.01,0c-1.47,0-2.27-0.61-2.42-1.84v-6.32
			l-2.37,0.32l0.02,9.65c0,2.18-1.22,3.27-3.67,3.27l0.2,1.93c1.96,0,3.43-0.41,4.39-1.22c0.96-0.81,1.44-2.11,1.44-3.89v-0.47
			c0.54,0.68,1.35,1.02,2.42,1.02c0.01,0,0.01,0,0.01,0c0,0,0.01,0,0.01,0h4.27h0h4.27h0c1.63,0,2.97-0.08,4.04-0.24
			c1.06-0.16,2.11-0.47,3.13-0.92c1.6,0.78,3.59,1.17,5.96,1.17c0.01,0,0.02-0.01,0.03-0.01c0.01,0,0.02,0.01,0.03,0.01
			c3.24,0,4.86-1.44,4.86-4.32v-11.15l-2.38,0.32L180,149.47z M170.94,151.42c-1.28-1.36-2.43-3-3.48-4.94
			c1.33-0.56,2.51-0.84,3.52-0.83c0.95,0,1.71,0.23,2.27,0.69c0.56,0.46,0.84,1.06,0.84,1.79c0,0.55-0.29,1.13-0.86,1.74
			C172.66,150.48,171.89,150.99,170.94,151.42z"/>
		<polygon class="st69" points="185.96,154.47 188.36,154.47 188.36,138.99 185.96,139.31 		"/>
		<path class="st69" d="M199.23,149.7c0.03-0.66,0.26-1.19,0.68-1.58c0.43-0.39,1.01-0.58,1.76-0.58c0.66,0,1.55,0.19,2.66,0.57
			l0.66-1.95c-1.51-0.55-2.75-0.83-3.72-0.83c-1.16,0-2.14,0.36-2.94,1.07c-0.8,0.71-1.2,1.61-1.2,2.68c0,0.95,0.32,1.93,0.97,2.95
			h-2.42v2.44h9.48l0.64-2.44h-5.78C199.45,151.14,199.18,150.36,199.23,149.7z"/>
		<polygon class="st69" points="248.08,140.41 246.1,138.57 244.16,140.41 246.14,142.28 		"/>
		<path class="st69" d="M245.02,149.55c0,1.65-0.82,2.48-2.46,2.48c0,0-0.01,0-0.01,0c0,0-0.01,0-0.01,0h-1.56
			c0.42-1.19,0.64-2.29,0.64-3.31c0-1.29-0.5-2.4-1.5-3.34c-1-0.94-2.19-1.41-3.59-1.41c-1.5,0-2.73,0.47-3.7,1.41
			c-0.97,0.94-1.45,2.13-1.45,3.57c0,0.98,0.2,1.88,0.59,2.71c-0.59,0.24-1.23,0.36-1.94,0.36h-4.27h0h-4.27h0h-4.27h-4.27
			c0,0-0.01,0-0.01,0c0,0-0.01,0-0.01,0c-1.63,0-2.44-0.85-2.44-2.56v-10.47l-2.4,0.32l0.02,10.83c0,2.88,1.61,4.32,4.84,4.32
			c0,0,0,0,0,0h4.27h4.27h0h4.27h0h4.27c0,0,0,0,0,0c1.19,0,2.35-0.35,3.5-1.04c0.98,0.69,2.22,1.04,3.72,1.04h5.28
			c1.61,0,2.83-0.36,3.64-1.08c0.81-0.72,1.22-1.76,1.22-3.12v-6.4l-2.4,0.32L245.02,149.55z M238.71,152.03h-1.56
			c-1.04,0-1.86-0.28-2.46-0.84c-0.6-0.56-0.9-1.29-0.9-2.19c0-0.83,0.26-1.51,0.78-2.02c0.52-0.52,1.21-0.77,2.06-0.77
			c0.76,0,1.4,0.29,1.91,0.86s0.77,1.24,0.77,2C239.3,149.88,239.1,150.87,238.71,152.03z"/>
	</g>
	<g>
		<g>
			<linearGradient id="SVGID_24_" gradientUnits="userSpaceOnUse" x1="106.8409" y1="118.162" x2="138.0844" y2="55.2771">
				<stop  offset="0" style="stop-color:#B48942"/>
				<stop  offset="1" style="stop-color:#C9AA59"/>
			</linearGradient>
			<polygon class="st24" points="124.65,72.19 124.65,77.45 115.27,86.08 115.27,125.83 111.39,125.83 111.39,84.38 124.65,72.18 
							"/>
		</g>
		<g>
			<linearGradient id="SVGID_25_" gradientUnits="userSpaceOnUse" x1="111.2053" y1="120.3304" x2="142.4488" y2="57.4454">
				<stop  offset="0" style="stop-color:#B48942"/>
				<stop  offset="1" style="stop-color:#C9AA59"/>
			</linearGradient>
			<polygon class="st25" points="149.75,21.66 149.75,55.99 145.88,52.63 145.88,29.78 131.61,41.34 131.61,126.82 96.84,126.82 
				96.84,122.94 127.74,122.94 127.74,39.49 			"/>
		</g>
		<g>
			<linearGradient id="SVGID_26_" gradientUnits="userSpaceOnUse" x1="131.174" y1="130.2516" x2="162.4175" y2="67.3666">
				<stop  offset="0" style="stop-color:#B48942"/>
				<stop  offset="1" style="stop-color:#C9AA59"/>
			</linearGradient>
			<polygon class="st26" points="162.62,126.51 158.75,126.51 158.75,73.34 144.24,60.71 144.24,126.78 140.37,126.78 140.37,52.2 
				162.62,71.58 			"/>
		</g>
		<g>
			<linearGradient id="SVGID_27_" gradientUnits="userSpaceOnUse" x1="150.4315" y1="139.8194" x2="181.675" y2="76.9344">
				<stop  offset="0" style="stop-color:#B48942"/>
				<stop  offset="1" style="stop-color:#C9AA59"/>
			</linearGradient>
			<path class="st27" d="M177.3,122.94l-0.1-24.24l-13.26-9.29v4.73l9.4,6.58l0.09,22.21h-19.12V87.4l3.11,2.18v-4.74l-6.98-4.89
				v46.86h36.18v-3.88H177.3z"/>
		</g>
	</g>
</g>
</svg>
